<svg xmlns="http://www.w3.org/2000/svg" width="249" height="256" viewBox="0 0 249 256">
  <path fill="#FF2D20" d="M248.10244,57.8130589 C248.194487,58.1537548 248.242424,58.5050326 248.242424,58.8579429 L248.242424,113.71185 C248.242424,115.144927 247.475791,116.468508 246.232648,117.181464 L200.192762,143.68852 L200.192762,196.227683 C200.192762,197.657524 199.432847,198.977378 198.192984,199.697297 L102.088659,255.021152 C101.868684,255.146138 101.628711,255.226129 101.388737,255.31112 C101.298747,255.341117 101.213757,255.396111 101.118768,255.421107 C100.446961,255.598022 99.740801,255.598022 99.0689949,255.421107 C98.959007,255.391111 98.8590187,255.331118 98.7540296,255.291122 C98.5340548,255.211131 98.3040795,255.141139 98.0941033,255.021152 L2.00977675,199.697297 C0.767390836,198.983582 0,197.660482 0,196.227683 L0,31.6659634 C0,31.3060035 0.0499944464,30.9560424 0.13998445,30.6160801 C0.169981118,30.5010928 0.239973343,30.3961045 0.2799689,30.2811173 C0.354960569,30.0711407 0.424952794,29.8561646 0.534940577,29.6611861 C0.609932246,29.5312006 0.719920028,29.4262123 0.809910032,29.3062256 C0.924897259,29.1462434 1.0298856,28.9812617 1.1648706,28.8412773 C1.27985783,28.72629 1.42984116,28.6412995 1.55982672,28.5413105 C1.70481062,28.4213239 1.83479618,28.2913384 1.99977785,28.1963489 L2.0047773,28.1963489 L50.0494403,0.534421686 C51.2874573,-0.177974078 52.810979,-0.177974078 54.048996,0.534421686 L102.093659,28.1963489 L102.103658,28.1963489 C102.26364,28.2963377 102.398625,28.4213239 102.543609,28.5363111 C102.673594,28.6363 102.818578,28.72629 102.933566,28.8362778 C103.073551,28.9812617 103.173539,29.1462434 103.293525,29.3062256 C103.378516,29.4262123 103.493504,29.5312006 103.563496,29.6611861 C103.678483,29.8611639 103.743475,30.0711407 103.823467,30.2811173 C103.863463,30.3961045 103.933455,30.5010928 103.963451,30.6210796 C104.0555,30.9617753 104.10256,31.3130532 104.103436,31.6659634 L104.103436,134.449546 L144.138989,111.397106 L144.138989,58.8529434 C144.138989,58.5029823 144.188983,58.1480217 144.278973,57.8130589 C144.313969,57.6930723 144.378961,57.588084 144.418958,57.4730967 C144.498949,57.26312 144.568941,57.0481439 144.678928,56.8531656 C144.75392,56.72318 144.863908,56.6181917 144.948899,56.498205 C145.068885,56.3382227 145.168874,56.1732411 145.308858,56.0332566 C145.423846,55.9182694 145.56883,55.8332788 145.698815,55.73329 C145.848798,55.6133033 145.978784,55.4833177 146.138767,55.3883283 L146.143765,55.3883283 L194.193428,27.7264011 C195.431171,27.0129789 196.955242,27.0129789 198.192984,27.7264011 L246.237647,55.3883283 C246.407628,55.4883172 246.537614,55.6133033 246.687597,55.7282905 C246.812583,55.8282795 246.957567,55.9182694 247.072555,56.0282572 C247.212538,56.1732411 247.312528,56.3382227 247.432514,56.498205 C247.522504,56.6181917 247.632492,56.72318 247.702484,56.8531656 C247.817471,57.0481439 247.882464,57.26312 247.962455,57.4730967 C248.00745,57.588084 248.072443,57.6930723 248.10244,57.8130589 Z M240.233314,111.397106 L240.233314,65.7821737 L223.420181,75.4610986 L200.192762,88.8346129 L200.192762,134.449546 L240.238314,111.397106 L240.233314,111.397106 Z M192.188651,193.912941 L192.188651,148.268011 L169.341189,161.316561 L104.098436,198.552425 L104.098436,244.627307 L192.188651,193.912941 Z M8.00911031,38.5901943 L8.00911031,193.912941 L96.0893261,244.622308 L96.0893261,198.557424 L50.0744375,172.515317 L50.0594392,172.505319 L50.0394415,172.495319 C49.8844587,172.405329 49.7544731,172.275344 49.6094892,172.165357 C49.4845031,172.065367 49.3395191,171.985376 49.2295313,171.875388 L49.2195325,171.86039 C49.089547,171.735404 48.9995569,171.580421 48.8895692,171.440436 C48.7895802,171.305452 48.6695936,171.190465 48.5896025,171.05048 L48.5846031,171.035482 C48.494613,170.885498 48.4396191,170.705519 48.3746263,170.535537 C48.3096336,170.385554 48.224643,170.24557 48.1846475,170.085587 L48.1846475,170.080588 C48.134653,169.890608 48.1246542,169.690631 48.1046564,169.495653 C48.0846585,169.34567 48.044663,169.195686 48.044663,169.045703 L48.044663,169.035704 L48.044663,61.6426335 L24.8222426,48.2641197 L8.00911031,38.5951937 L8.00911031,38.5901943 Z M52.0542176,8.62352311 L12.0236644,31.6659634 L52.0442188,54.7084038 L92.0697725,31.6609641 L52.0442188,8.62352311 L52.0542176,8.62352311 Z M72.8719051,152.427549 L96.0943254,139.059034 L96.0943254,38.5901943 L79.2811931,48.2691191 L56.0537733,61.6426335 L56.0537733,162.111473 L72.8719051,152.427549 Z M196.193206,35.8155025 L156.167652,58.8579429 L196.193206,81.9003832 L236.21376,58.8529434 L196.193206,35.8155025 Z M192.188651,88.8346129 L168.961232,75.4610986 L152.148099,65.7821737 L152.148099,111.397106 L175.370519,124.765621 L192.188651,134.449546 L192.188651,88.8346129 Z M100.088881,191.628194 L158.79736,158.111918 L188.1441,141.363778 L148.148543,118.336336 L102.098659,144.848391 L60.1283207,169.010706 L100.088881,191.628194 Z"/>
<style xmlns="" id="autoconsent-prehide"/></svg>