<svg xmlns="http://www.w3.org/2000/svg" width="215" height="256" viewBox="0 0 215 256">
  <defs>
    <linearGradient id="linux-a" x1="48.548%" x2="51.047%" y1="115.276%" y2="41.364%">
      <stop offset="0%" stop-color="#FFEED7"/>
      <stop offset="100%" stop-color="#BDBFC2"/>
    </linearGradient>
    <linearGradient id="linux-b" x1="54.407%" x2="46.175%" y1="2.404%" y2="90.542%">
      <stop offset="0%" stop-color="#FFF" stop-opacity=".8"/>
      <stop offset="100%" stop-color="#FFF" stop-opacity="0"/>
    </linearGradient>
    <linearGradient id="linux-c" x1="51.86%" x2="47.947%" y1="88.248%" y2="9.748%">
      <stop offset="0%" stop-color="#FFEED7"/>
      <stop offset="100%" stop-color="#BDBFC2"/>
    </linearGradient>
    <linearGradient id="linux-d" x1="49.925%" x2="49.924%" y1="85.49%" y2="13.811%">
      <stop offset="0%" stop-color="#FFEED7"/>
      <stop offset="100%" stop-color="#BDBFC2"/>
    </linearGradient>
    <linearGradient id="linux-e" x1="53.901%" x2="45.956%" y1="3.102%" y2="93.895%">
      <stop offset="0%" stop-color="#FFF" stop-opacity=".65"/>
      <stop offset="100%" stop-color="#FFF" stop-opacity="0"/>
    </linearGradient>
    <linearGradient id="linux-f" x1="45.593%" x2="54.811%" y1="5.475%" y2="93.524%">
      <stop offset="0%" stop-color="#FFF" stop-opacity=".65"/>
      <stop offset="100%" stop-color="#FFF" stop-opacity="0"/>
    </linearGradient>
    <linearGradient id="linux-g" x1="49.984%" x2="49.984%" y1="89.845%" y2="40.632%">
      <stop offset="0%" stop-color="#FFEED7"/>
      <stop offset="100%" stop-color="#BDBFC2"/>
    </linearGradient>
    <linearGradient id="linux-h" x1="53.505%" x2="42.746%" y1="99.975%" y2="23.545%">
      <stop offset="0%" stop-color="#FFEED7"/>
      <stop offset="100%" stop-color="#BDBFC2"/>
    </linearGradient>
    <linearGradient id="linux-i" x1="49.841%" x2="50.241%" y1="13.229%" y2="94.673%">
      <stop offset="0%" stop-color="#FFF" stop-opacity=".8"/>
      <stop offset="100%" stop-color="#FFF" stop-opacity="0"/>
    </linearGradient>
    <linearGradient id="linux-j" x1="49.927%" x2="50.727%" y1="37.327%" y2="92.782%">
      <stop offset="0%" stop-color="#FFF" stop-opacity=".65"/>
      <stop offset="100%" stop-color="#FFF" stop-opacity="0"/>
    </linearGradient>
    <linearGradient id="linux-k" x1="49.876%" x2="49.876%" y1="2.299%" y2="81.204%">
      <stop offset="0%" stop-color="#FFF" stop-opacity=".65"/>
      <stop offset="100%" stop-color="#FFF" stop-opacity="0"/>
    </linearGradient>
    <linearGradient id="linux-l" x1="49.833%" x2="49.824%" y1="2.272%" y2="71.799%">
      <stop offset="0%" stop-color="#FFF" stop-opacity=".65"/>
      <stop offset="100%" stop-color="#FFF" stop-opacity="0"/>
    </linearGradient>
    <linearGradient id="linux-m" x1="53.467%" x2="38.949%" y1="48.921%" y2="98.1%">
      <stop offset="0%" stop-color="#FFA63F"/>
      <stop offset="100%" stop-color="#FF0"/>
    </linearGradient>
    <linearGradient id="linux-n" x1="52.373%" x2="47.579%" y1="143.009%" y2="-64.622%">
      <stop offset="0%" stop-color="#FFEED7"/>
      <stop offset="100%" stop-color="#BDBFC2"/>
    </linearGradient>
    <linearGradient id="linux-o" x1="30.581%" x2="65.887%" y1="34.024%" y2="89.175%">
      <stop offset="0%" stop-color="#FFA63F"/>
      <stop offset="100%" stop-color="#FF0"/>
    </linearGradient>
    <linearGradient id="linux-p" x1="59.572%" x2="48.361%" y1="-17.216%" y2="66.118%">
      <stop offset="0%" stop-color="#FFF" stop-opacity=".65"/>
      <stop offset="100%" stop-color="#FFF" stop-opacity="0"/>
    </linearGradient>
    <linearGradient id="linux-q" x1="47.769%" x2="51.373%" y1="1.565%" y2="104.313%">
      <stop offset="0%" stop-color="#FFF" stop-opacity=".65"/>
      <stop offset="100%" stop-color="#FFF" stop-opacity="0"/>
    </linearGradient>
    <linearGradient id="linux-r" x1="43.55%" x2="57.114%" y1="4.533%" y2="92.827%">
      <stop offset="0%" stop-color="#FFF" stop-opacity=".65"/>
      <stop offset="100%" stop-color="#FFF" stop-opacity="0"/>
    </linearGradient>
    <linearGradient id="linux-s" x1="49.733%" x2="50.558%" y1="17.609%" y2="99.385%">
      <stop offset="0%" stop-color="#FFA63F"/>
      <stop offset="100%" stop-color="#FF0"/>
    </linearGradient>
    <linearGradient id="linux-t" x1="50.17%" x2="49.68%" y1="2.89%" y2="94.17%">
      <stop offset="0%" stop-color="#FFF" stop-opacity=".65"/>
      <stop offset="100%" stop-color="#FFF" stop-opacity="0"/>
    </linearGradient>
  </defs>
  <g fill="none" fill-rule="evenodd">
    <path fill="#000" fill-opacity=".2" fill-rule="nonzero" d="M214.206791,227.173697 C214.206791,242.985243 166.2702,255.868725 107.123307,255.868725 C47.9764127,255.868725 0.0398216708,243.068902 0.0398216708,227.173697 L0.0398216708,227.173697 C0.0398216708,211.362151 47.9764127,198.478669 107.123307,198.478669 C166.2702,198.478669 214.123132,211.362151 214.206791,227.173697 L214.206791,227.173697 L214.206791,227.173697 Z"/>
    <path fill="#000" fill-rule="nonzero" d="M48.4783666,196.303537 C38.1046541,181.412239 36.0968387,132.890035 60.2742817,103.023783 C72.2375147,88.718098 75.3328967,78.7626803 76.2531454,65.2935858 C76.9224172,49.9839939 65.4611379,4.38985398 108.629168,0.959836124 C152.38281,-2.55384071 149.9567,40.614189 149.705723,63.4530884 C149.538405,82.694652 163.84409,93.6539777 173.715848,108.712592 C191.869845,136.320053 190.363983,183.838349 170.28583,209.605313 C144.853503,241.814017 123.10217,227.842969 108.629168,229.014195 C81.5236606,230.603715 80.603412,244.993059 48.4783666,196.303537 L48.4783666,196.303537 Z"/>
    <path fill="url(#linux-a)" fill-rule="nonzero" d="M154.05599,111.556997 C161.585297,118.500692 181.077837,149.538171 150.207677,168.947052 C139.33201,175.723429 159.912117,201.490393 169.783876,189.025206 C187.268602,166.604601 176.141958,130.798561 165.600927,117.998739 C158.573574,108.963569 147.697908,105.449893 154.05599,111.556997 L154.05599,111.556997 Z"/>
    <path fill="#000" fill-rule="nonzero" stroke="#000" stroke-width=".977" d="M151.964515,107.374049 C164.346043,117.413125 186.850307,152.549893 153.972331,175.472452 C143.180324,182.583465 163.509454,205.087729 174.970732,193.626449 C214.708744,153.637461 173.966825,107.708685 159.912117,91.897139 C147.363272,78.0934086 136.236629,95.0761798 151.964515,107.374049 L151.964515,107.374049 Z"/>
    <path fill="url(#linux-b)" fill-rule="nonzero" d="M134.145154,22.7948279 C133.726859,34.256107 121.094354,44.2115248 105.95208,45.1317734 C90.8098066,46.0520222 78.9302325,37.351489 79.3485274,25.8902099 L79.3485274,25.8902099 C79.7668223,14.4289306 92.3993272,4.47351296 107.541601,3.55326426 C122.683875,2.71667454 134.563449,11.3335486 134.145154,22.7948279 L134.145154,22.7948279 L134.145154,22.7948279 Z"/>
    <path fill="url(#linux-c)" fill-rule="nonzero" d="M97.920819,50.0676529 C98.3391139,57.5133014 94.8254374,63.7877243 89.9732168,64.0387012 C85.1209965,64.2896781 80.8543889,58.517209 80.436094,51.0715605 L80.436094,51.0715605 C80.0177992,43.6259119 83.531476,37.351489 88.3836964,37.1005121 C93.235917,36.8495352 97.5025241,42.6220043 97.920819,50.0676529 L97.920819,50.0676529 L97.920819,50.0676529 Z"/>
    <path fill="url(#linux-d)" fill-rule="nonzero" d="M106.705012,50.6532656 C106.872329,59.2701398 112.47748,66.1301755 119.170198,65.9628576 C125.862916,65.7955396 131.133431,58.684527 130.966113,49.9839939 L130.966113,49.9839939 C130.798795,41.3671197 125.193644,34.507084 118.500926,34.6744019 C111.808209,34.8417199 106.454034,42.0363915 106.705012,50.6532656 L106.705012,50.6532656 L106.705012,50.6532656 Z"/>
    <path fill="#000" fill-rule="nonzero" d="M112.226504 52.577422C112.142844 57.3459834 114.485295 61.1942961 117.580678 61.1942961 120.5924 61.1942961 123.185829 57.3459834 123.269488 52.661081L123.269488 52.661081C123.353147 47.8925195 121.010695 44.0442068 117.915314 44.0442068 114.819932 44.0442068 112.310163 47.8925195 112.226504 52.577422L112.226504 52.577422 112.226504 52.577422zM92.9012813 52.661081C93.3195761 56.5930527 91.813714 59.9394115 89.6385809 60.2740475 87.4634477 60.5250244 85.3719734 57.5969603 84.9536785 53.6649887L84.9536785 53.6649887C84.5353836 49.733017 86.0412452 46.386658 88.2163784 46.0520222 90.3915117 45.8010453 92.4829864 48.7291093 92.9012813 52.661081L92.9012813 52.661081 92.9012813 52.661081z"/>
    <path fill="url(#linux-e)" fill-rule="nonzero" d="M113.481388,49.9003349 C113.230411,52.577422 114.485295,54.7525553 116.242134,54.9198732 C117.998973,55.0871912 119.672152,52.9957168 119.923129,50.4022887 L119.923129,50.4022887 C120.174106,47.7252016 118.919221,45.5500683 117.162383,45.3827504 C115.405544,45.2154324 113.732365,47.3069068 113.481388,49.9003349 L113.481388,49.9003349 L113.481388,49.9003349 Z"/>
    <path fill="url(#linux-f)" fill-rule="nonzero" d="M91.0607835,50.5696067 C91.3117609,52.74474 90.3915117,54.6688963 89.0529682,54.8362143 C87.7144246,55.0035322 86.45954,53.3303527 86.2085631,51.0715605 L86.2085631,51.0715605 C85.9575862,48.8964272 86.8778348,46.9722709 88.2163784,46.8049529 C89.554922,46.637635 90.8098066,48.3944734 91.0607835,50.5696067 L91.0607835,50.5696067 L91.0607835,50.5696067 Z"/>
    <path fill="url(#linux-g)" fill-rule="nonzero" d="M64.7082072,132.722717 C70.6479943,119.253623 83.2804991,95.5781339 83.531476,77.2568188 C83.531476,62.7001576 127.1178,59.1864808 130.631478,73.743142 C134.145154,88.2998031 143.013005,110.051136 148.701815,120.592166 C154.390625,131.049538 170.871443,164.429468 153.303059,193.54279 C137.491513,219.309754 89.554922,239.722543 63.9552764,190.029113 C55.2547434,172.795366 56.8442639,151.462327 64.7082072,132.722717 L64.7082072,132.722717 Z"/>
    <path fill="url(#linux-h)" fill-rule="nonzero" d="M59.354033,122.683641 C54.2508357,132.304422 43.7098052,157.569432 69.4767686,171.373163 C97.1678884,186.097142 97.0842292,216.29803 63.7879586,201.908688 C33.3360926,188.941547 46.8051871,136.403712 55.3384023,123.854866 C60.8598945,115.070674 69.2257918,104.278666 59.354033,122.683641 L59.354033,122.683641 Z"/>
    <path fill="#000" fill-rule="nonzero" stroke="#000" stroke-width="1.25" d="M63.7042996,111.807974 C55.5893793,125.026092 36.1804977,156.14723 62.1984381,172.377071 C97.1678884,193.877427 87.2961297,215.294123 55.3384023,195.9689 C10.3298752,169.030712 49.9005691,114.65238 67.8872482,93.9049543 C88.4673553,70.64776 71.8192199,98.1715615 63.7042996,111.807974 L63.7042996,111.807974 Z"/>
    <path fill="url(#linux-i)" fill-rule="nonzero" d="M142.511051,137.825915 C142.511051,152.549893 128.372685,171.624139 104.111583,171.456822 C79.0975504,171.624139 68.472861,152.549893 68.472861,137.825915 C68.472861,123.101936 85.0373375,111.138703 105.450127,111.138703 C125.946575,111.222361 142.511051,123.101936 142.511051,137.825915 L142.511051,137.825915 Z"/>
    <path fill="url(#linux-j)" fill-rule="nonzero" d="M129.292934,91.5625033 C129.041957,106.788436 119.086539,110.385772 106.537693,110.385772 C93.9888476,110.385772 84.8700196,108.12698 83.7824529,91.5625033 C83.7824529,81.1887905 93.9888476,75.1653445 106.537693,75.1653445 C119.086539,75.0816855 129.292934,81.1051316 129.292934,91.5625033 L129.292934,91.5625033 Z"/>
    <path fill="url(#linux-k)" fill-rule="nonzero" d="M53.4142459,114.987015 C61.6128252,102.521829 78.9302325,83.3639238 56.6769459,117.664102 C38.6066079,145.940835 49.9842281,164.094832 55.8403562,169.114371 C72.7394686,184.172985 72.0701967,194.295721 58.7684202,186.348119 C30.2407107,169.365347 36.1804977,140.753979 53.4142459,114.987015 L53.4142459,114.987015 Z"/>
    <path fill="url(#linux-l)" fill-rule="nonzero" d="M172.126327,120.090212 C165.015315,105.449893 142.427393,68.3053088 173.213895,111.473339 C201.23965,150.542078 181.579791,177.731244 178.066115,180.408332 C174.552438,183.085419 162.756522,188.523252 166.186541,179.069788 C169.700217,169.616324 187.101283,151.713304 172.126327,120.090212 L172.126327,120.090212 Z"/>
    <path fill="url(#linux-m)" fill-rule="nonzero" stroke="#E68C3F" stroke-width="6.25" d="M47.223482,235.539594 C28.4838723,225.584176 1.29470625,237.463751 11.166465,210.525562 C13.1742803,204.418457 8.23840096,195.215969 11.4174419,189.276183 C15.1820957,181.997852 23.297016,183.587373 28.1492363,178.735152 C32.9177978,173.715614 35.9295207,165.015081 44.8810308,166.353624 C53.7488819,167.692168 59.6886689,178.567834 65.8794328,191.95327 C70.4806764,201.490393 86.710517,214.959488 85.6229503,225.667835 C84.2844067,242.064994 65.6284559,245.160376 47.223482,235.539594 L47.223482,235.539594 Z"/>
    <path fill="url(#linux-n)" fill-rule="nonzero" d="M183.671266,172.293412 C180.826861,177.647586 168.947287,186.264459 160.999685,184.005668 C152.968423,181.830534 149.287429,169.616324 150.876949,160.330178 C152.38281,149.956466 160.999685,149.370853 171.875351,154.557709 C183.587607,160.330178 187.101283,165.182398 183.671266,172.293412 L183.671266,172.293412 Z"/>
    <path fill="url(#linux-o)" fill-rule="nonzero" stroke="#E68C3F" stroke-width="6.251" d="M177.145866,230.938351 C190.865937,214.290215 221.401462,217.720233 200.821356,194.881334 C196.471088,189.945454 197.809632,179.404424 192.455458,174.886839 C186.181035,169.365347 179.23734,173.882932 172.879258,171.038527 C166.521176,167.943144 159.828459,162.003358 152.048174,166.186307 C144.26789,170.452914 143.4313,181.495898 142.678369,196.052559 C142.009098,206.509931 132.471975,223.994656 137.575172,233.615438 C144.937161,248.506735 164.095066,246.49892 177.145866,230.938351 L177.145866,230.938351 Z"/>
    <path fill="url(#linux-p)" fill-rule="nonzero" d="M171.206079,208.685064 C192.455458,177.312949 176.643912,177.563927 171.289738,175.137817 C165.935564,172.628047 160.330412,167.692168 154.05599,171.122186 C147.781566,174.635863 147.446931,183.671032 147.279613,195.550605 C147.028636,204.08382 139.917624,218.389505 144.184231,226.337108 C149.371087,235.623254 161.919933,222.154159 171.206079,208.685064 L171.206079,208.685064 Z"/>
    <path fill="url(#linux-q)" fill-rule="nonzero" d="M42.8732155,213.202649 C11.082806,192.622542 25.9741031,185.595188 30.7426645,182.332488 C36.5151336,178.149539 36.5987926,170.118278 43.7098052,170.871209 C50.8208178,171.624139 55.0037664,180.408332 59.7723279,191.283998 C63.2860047,199.064283 75.5002147,209.437995 74.579966,218.389505 C73.4087403,228.930535 56.5932869,221.986841 42.8732155,213.202649 L42.8732155,213.202649 Z"/>
    <path fill="#000" fill-rule="nonzero" d="M181.830768,172.042434 C179.321,176.392701 169.114605,183.252737 162.338227,181.412239 C155.394534,179.655401 152.215492,169.867301 153.637695,162.505312 C154.89258,154.139415 162.338227,153.72112 171.708032,157.904068 C181.663451,162.421652 184.758832,166.269966 181.830768,172.042434 L181.830768,172.042434 Z"/>
    <path fill="url(#linux-r)" fill-rule="nonzero" d="M174.970732,169.616324 C173.381212,172.628047 166.688495,177.396608 162.003592,176.141724 C157.31869,174.886839 154.976239,168.110463 155.729169,163.007266 C156.398441,157.234796 161.417979,156.900161 167.776061,159.744566 C174.636097,162.923607 176.81123,165.600693 174.970732,169.616324 L174.970732,169.616324 Z"/>
    <path fill="url(#linux-s)" fill-rule="nonzero" stroke="#E68C3F" stroke-width="3.75" d="M88.4673553,60.4413654 C91.813714,57.3459834 99.9286343,47.8925195 115.321885,57.7642783 C118.16629,59.6047757 120.508742,59.7720936 125.946575,62.1145449 C136.9059,66.6321293 131.719044,77.5077957 120.006788,81.1887905 C114.987249,82.778311 110.469665,88.885416 101.434496,88.2998031 C93.6542119,87.8815083 91.6463966,82.778311 86.8778348,80.0175649 C78.4282787,75.2490035 77.1733941,68.8072627 81.7746376,65.3772447 C86.3758811,61.9472269 88.1327195,60.6923423 88.4673553,60.4413654 L88.4673553,60.4413654 Z"/>
    <path stroke="#E68C3F" stroke-width="2.5" d="M126.113893,69.2255575 C121.512649,69.4765344 111.557232,79.4319521 101.09986,79.4319521 C90.6424887,79.4319521 84.3680657,69.7275113 82.7785452,69.7275113"/>
    <path fill="url(#linux-t)" fill-rule="nonzero" d="M93.6542119,59.6047757 C95.3273914,58.0989142 100.597907,53.9996246 107.541601,58.1825732 C109.047463,59.0191629 110.553324,59.9394115 112.728458,61.1942961 C117.162383,63.7877243 114.987249,67.5523781 109.633075,69.8948293 C107.206965,70.8987369 103.191334,73.0738703 100.179612,72.9065523 C96.8332527,72.5719164 94.5744599,70.3967831 92.3993272,68.9745806 C88.3000374,66.2974935 88.5510143,64.0387012 90.4751707,62.2818628 C91.8973732,60.9433193 93.4868936,59.6884346 93.6542119,59.6047757 L93.6542119,59.6047757 Z"/>
  </g>
<style xmlns="" id="autoconsent-prehide"/></svg>