<svg xmlns="http://www.w3.org/2000/svg" width="256" height="256" viewBox="0 0 256 256">
  <defs>
    <linearGradient id="ruby-a" x1="84.75%" x2="58.254%" y1="111.399%" y2="64.584%">
      <stop offset="0%" stop-color="#FB7655"/>
      <stop offset="0%" stop-color="#FB7655"/>
      <stop offset="41%" stop-color="#E42B1E"/>
      <stop offset="99%" stop-color="#900"/>
      <stop offset="100%" stop-color="#900"/>
    </linearGradient>
    <linearGradient id="ruby-b" x1="116.651%" x2="1.746%" y1="60.89%" y2="19.288%">
      <stop offset="0%" stop-color="#871101"/>
      <stop offset="0%" stop-color="#871101"/>
      <stop offset="99%" stop-color="#911209"/>
      <stop offset="100%" stop-color="#911209"/>
    </linearGradient>
    <linearGradient id="ruby-c" x1="75.774%" x2="38.978%" y1="219.327%" y2="7.829%">
      <stop offset="0%" stop-color="#871101"/>
      <stop offset="0%" stop-color="#871101"/>
      <stop offset="99%" stop-color="#911209"/>
      <stop offset="100%" stop-color="#911209"/>
    </linearGradient>
    <linearGradient id="ruby-d" x1="50.012%" x2="66.483%" y1="7.234%" y2="79.135%">
      <stop offset="0%" stop-color="#FFF"/>
      <stop offset="0%" stop-color="#FFF"/>
      <stop offset="23%" stop-color="#E57252"/>
      <stop offset="46%" stop-color="#DE3B20"/>
      <stop offset="99%" stop-color="#A60003"/>
      <stop offset="100%" stop-color="#A60003"/>
    </linearGradient>
    <linearGradient id="ruby-e" x1="46.174%" x2="49.932%" y1="16.348%" y2="83.047%">
      <stop offset="0%" stop-color="#FFF"/>
      <stop offset="0%" stop-color="#FFF"/>
      <stop offset="23%" stop-color="#E4714E"/>
      <stop offset="56%" stop-color="#BE1A0D"/>
      <stop offset="99%" stop-color="#A80D00"/>
      <stop offset="100%" stop-color="#A80D00"/>
    </linearGradient>
    <linearGradient id="ruby-f" x1="36.965%" x2="49.528%" y1="15.594%" y2="92.478%">
      <stop offset="0%" stop-color="#FFF"/>
      <stop offset="0%" stop-color="#FFF"/>
      <stop offset="18%" stop-color="#E46342"/>
      <stop offset="40%" stop-color="#C82410"/>
      <stop offset="99%" stop-color="#A80D00"/>
      <stop offset="100%" stop-color="#A80D00"/>
    </linearGradient>
    <linearGradient id="ruby-g" x1="13.609%" x2="85.764%" y1="58.346%" y2="-46.717%">
      <stop offset="0%" stop-color="#FFF"/>
      <stop offset="0%" stop-color="#FFF"/>
      <stop offset="54%" stop-color="#C81F11"/>
      <stop offset="99%" stop-color="#BF0905"/>
      <stop offset="100%" stop-color="#BF0905"/>
    </linearGradient>
    <linearGradient id="ruby-h" x1="27.624%" x2="50.745%" y1="21.135%" y2="79.056%">
      <stop offset="0%" stop-color="#FFF"/>
      <stop offset="0%" stop-color="#FFF"/>
      <stop offset="31%" stop-color="#DE4024"/>
      <stop offset="99%" stop-color="#BF190B"/>
      <stop offset="100%" stop-color="#BF190B"/>
    </linearGradient>
    <linearGradient id="ruby-i" x1="-20.667%" x2="104.242%" y1="122.282%" y2="-6.342%">
      <stop offset="0%" stop-color="#BD0012"/>
      <stop offset="0%" stop-color="#BD0012"/>
      <stop offset="7%" stop-color="#FFF"/>
      <stop offset="17%" stop-color="#FFF"/>
      <stop offset="27%" stop-color="#C82F1C"/>
      <stop offset="33%" stop-color="#820C01"/>
      <stop offset="46%" stop-color="#A31601"/>
      <stop offset="72%" stop-color="#B31301"/>
      <stop offset="99%" stop-color="#E82609"/>
      <stop offset="100%" stop-color="#E82609"/>
    </linearGradient>
    <linearGradient id="ruby-j" x1="58.792%" x2="11.964%" y1="65.205%" y2="50.128%">
      <stop offset="0%" stop-color="#8C0C01"/>
      <stop offset="0%" stop-color="#8C0C01"/>
      <stop offset="54%" stop-color="#990C00"/>
      <stop offset="99%" stop-color="#A80D0E"/>
      <stop offset="100%" stop-color="#A80D0E"/>
    </linearGradient>
    <linearGradient id="ruby-k" x1="79.319%" x2="23.088%" y1="62.754%" y2="17.888%">
      <stop offset="0%" stop-color="#7E110B"/>
      <stop offset="0%" stop-color="#7E110B"/>
      <stop offset="99%" stop-color="#9E0C00"/>
      <stop offset="100%" stop-color="#9E0C00"/>
    </linearGradient>
    <linearGradient id="ruby-l" x1="92.88%" x2="59.841%" y1="74.122%" y2="39.704%">
      <stop offset="0%" stop-color="#79130D"/>
      <stop offset="0%" stop-color="#79130D"/>
      <stop offset="99%" stop-color="#9E120B"/>
      <stop offset="100%" stop-color="#9E120B"/>
    </linearGradient>
    <radialGradient id="ruby-m" cx="32.022%" cy="40.21%" r="133.144%" fx="32.022%" fy="40.21%" gradientTransform="matrix(.52254 0 0 1 .153 0)">
      <stop offset="0%" stop-color="#A80D00"/>
      <stop offset="0%" stop-color="#A80D00"/>
      <stop offset="99%" stop-color="#7E0E08"/>
      <stop offset="100%" stop-color="#7E0E08"/>
    </radialGradient>
    <radialGradient id="ruby-n" cx="13.547%" cy="40.86%" r="113.541%" fx="13.547%" fy="40.86%" gradientTransform="matrix(.77845 0 0 1 .03 0)">
      <stop offset="0%" stop-color="#A30C00"/>
      <stop offset="0%" stop-color="#A30C00"/>
      <stop offset="99%" stop-color="#800E08"/>
      <stop offset="100%" stop-color="#800E08"/>
    </radialGradient>
    <linearGradient id="ruby-o" x1="56.57%" x2="3.105%" y1="101.717%" y2="11.993%">
      <stop offset="0%" stop-color="#8B2114"/>
      <stop offset="0%" stop-color="#8B2114"/>
      <stop offset="43%" stop-color="#9E100A"/>
      <stop offset="99%" stop-color="#B3100C"/>
      <stop offset="100%" stop-color="#B3100C"/>
    </linearGradient>
    <linearGradient id="ruby-p" x1="30.87%" x2="92.471%" y1="35.599%" y2="100.694%">
      <stop offset="0%" stop-color="#B31000"/>
      <stop offset="0%" stop-color="#B31000"/>
      <stop offset="44%" stop-color="#910F08"/>
      <stop offset="99%" stop-color="#791C12"/>
      <stop offset="100%" stop-color="#791C12"/>
    </linearGradient>
  </defs>
  <g fill="none">
    <polygon fill="url(#ruby-a)" points="198.241 168.422 52.15 255.17 241.312 242.334 255.881 51.595"/>
    <polygon fill="url(#ruby-b)" points="241.621 242.203 225.362 129.987 181.076 188.465"/>
    <polygon fill="url(#ruby-c)" points="241.841 242.203 122.729 232.854 52.782 254.926"/>
    <polygon fill="url(#ruby-d)" points="52.951 254.951 82.706 157.47 17.228 171.471"/>
    <polygon fill="url(#ruby-e)" points="181.065 188.788 153.685 81.544 75.332 154.99"/>
    <polygon fill="url(#ruby-f)" points="249.668 83.054 175.602 22.562 154.977 89.241"/>
    <polygon fill="url(#ruby-g)" points="215.031 .995 171.47 25.068 143.986 .672"/>
    <polygon fill="url(#ruby-h)" points="0 204.17 18.248 170.889 3.487 131.24"/>
    <path fill="#FFF" d="M2.50546536,129.987159 L17.3574507,172.115139 L81.8925561,157.63639 L155.571318,89.1622801 L176.364098,23.1174382 L143.623865,0 L87.9612065,20.8315239 C70.4242404,37.1428783 36.3938217,69.4168883 35.1669185,70.0238826 C33.9529301,70.6437915 12.6952188,110.821641 2.50546536,129.987159 L2.50546536,129.987159 Z"/>
    <path fill="url(#ruby-i)" d="M54.6553063,54.3066076 C92.6634742,16.6213089 141.662112,-5.64375446 160.466016,13.3280426 C179.258298,32.2998395 159.329517,78.4055683 121.321349,116.077953 C83.3131808,153.750336 34.9215379,177.242303 16.1305477,158.270505 C-2.67335737,139.311623 16.6471385,91.9789914 54.6553063,54.3066076 L54.6553063,54.3066076 Z"/>
    <path fill="url(#ruby-j)" d="M52.9505567,254.911729 L82.4737208,157.121091 L180.522654,188.620215 C145.071611,221.862833 105.642818,249.965372 52.9505567,254.911729 L52.9505567,254.911729 Z"/>
    <path fill="url(#ruby-k)" d="M155.700466,88.9698501 L180.871353,188.671874 C210.484921,157.534364 237.063516,124.05928 250.080313,82.6545275 L155.700466,88.9698501 L155.700466,88.9698501 Z"/>
    <path fill="url(#ruby-l)" d="M249.823309,83.1582035 C259.89683,52.7568352 262.221489,9.14365711 214.719674,1.04609636 L175.742898,22.5750179 L249.823309,83.1582035 L249.823309,83.1582035 Z"/>
    <path fill="#9E1209" d="M0,203.730495 C1.39479515,253.905668 37.5948953,254.653433 53.0151306,255.093827 L17.3961951,171.908503 L0,203.730495 L0,203.730495 Z"/>
    <path fill="url(#ruby-m)" d="M155.841237,89.1248273 C178.597062,103.111523 224.458702,131.201147 225.388565,131.717738 C226.833727,132.531369 245.161077,100.812694 249.319634,82.8869934 L155.841237,89.1248273 L155.841237,89.1248273 Z"/>
    <path fill="url(#ruby-n)" d="M82.4349764,157.121091 L121.902514,233.266575 C145.239503,220.6101 163.513902,205.189865 180.251444,188.671874 L82.4349764,157.121091 L82.4349764,157.121091 Z"/>
    <path fill="url(#ruby-o)" d="M17.2412178,172.01182 L11.6491225,238.600375 C22.2004895,253.013258 36.7166909,254.265991 51.9432046,253.142406 C40.9269059,225.724349 18.920138,170.901151 17.2412178,172.01182 L17.2412178,172.01182 Z"/>
    <path fill="url(#ruby-p)" d="M175.511724,22.7429099 L253.917291,33.7462939 C249.732906,16.0143147 236.88271,4.57182856 214.97926,0.994437285 L175.511724,22.7429099 L175.511724,22.7429099 Z"/>
  </g>
<style xmlns="" id="autoconsent-prehide"/></svg>
